<svg xmlns="http://www.w3.org/2000/svg" viewBox="0 0 1200 640" role="img" aria-labelledby="title desc">
<title id="title">Минимумы 2-адических порядков хвоста</title>
<desc id="desc">Сравнение уникального минимума для n=20 и двух равных минимумов для n=9261.</desc>

<style>
  :root { --bg:#fbfbfd; --fg:#171821; --muted:#626779; --grid:#d9dce6;
          --a:#2b6de0; --b:#db5a42; --c:#6e57c5; --soft:#eef3ff; }
  .bg { fill:var(--bg); }
  .fg { fill:var(--fg); }
  .muted { fill:var(--muted); }
  .grid { stroke:var(--grid); stroke-width:1; }
  .axis { stroke:var(--fg); stroke-width:1.5; }
  .line-a { fill:none; stroke:var(--a); stroke-width:4; stroke-linejoin:round; stroke-linecap:round; }
  .line-b { fill:none; stroke:var(--b); stroke-width:4; stroke-linejoin:round; stroke-linecap:round; }
  .mark-a { fill:var(--a); }
  .mark-b { fill:var(--b); }
  .mark-c { fill:var(--c); }
  .soft { fill:var(--soft); }
  text { font-family:"Courier Prime","Courier New",monospace; }
  .title { font-size:28px; font-weight:600; }
  .subtitle { font-size:18px; font-weight:500; }
  .label { font-size:16px; }
  .small { font-size:14px; }
  .mono { font-family:"Courier Prime","Courier New",monospace; }
</style>

<rect class="bg" width="1200" height="640"/>
<text x="70" y="58" class="fg title">Где прячется первая ненулевая двоичная цифра хвоста</text>
<text x="70" y="88" class="muted label">Высота точки — ν₂(aₖ) − n = (k−n) + s₂(k). Минимум задаёт u(n), пока нет ничьей.</text>
<text x="70" y="102" class="fg subtitle">Обычный случай: n = 20</text>
<line x1="70" y1="550.0" x2="570" y2="550.0" class="grid"/>
<text x="58" y="555.0" text-anchor="end" class="muted small">3</text>
<line x1="70" y1="527.4" x2="570" y2="527.4" class="grid"/>
<text x="58" y="532.4" text-anchor="end" class="muted small">4</text>
<line x1="70" y1="504.7" x2="570" y2="504.7" class="grid"/>
<text x="58" y="509.7" text-anchor="end" class="muted small">5</text>
<line x1="70" y1="482.1" x2="570" y2="482.1" class="grid"/>
<text x="58" y="487.1" text-anchor="end" class="muted small">6</text>
<line x1="70" y1="459.5" x2="570" y2="459.5" class="grid"/>
<text x="58" y="464.5" text-anchor="end" class="muted small">7</text>
<line x1="70" y1="436.8" x2="570" y2="436.8" class="grid"/>
<text x="58" y="441.8" text-anchor="end" class="muted small">8</text>
<line x1="70" y1="414.2" x2="570" y2="414.2" class="grid"/>
<text x="58" y="419.2" text-anchor="end" class="muted small">9</text>
<line x1="70" y1="391.6" x2="570" y2="391.6" class="grid"/>
<text x="58" y="396.6" text-anchor="end" class="muted small">10</text>
<line x1="70" y1="368.9" x2="570" y2="368.9" class="grid"/>
<text x="58" y="373.9" text-anchor="end" class="muted small">11</text>
<line x1="70" y1="346.3" x2="570" y2="346.3" class="grid"/>
<text x="58" y="351.3" text-anchor="end" class="muted small">12</text>
<line x1="70" y1="323.7" x2="570" y2="323.7" class="grid"/>
<text x="58" y="328.7" text-anchor="end" class="muted small">13</text>
<line x1="70" y1="301.1" x2="570" y2="301.1" class="grid"/>
<text x="58" y="306.1" text-anchor="end" class="muted small">14</text>
<line x1="70" y1="278.4" x2="570" y2="278.4" class="grid"/>
<text x="58" y="283.4" text-anchor="end" class="muted small">15</text>
<line x1="70" y1="255.8" x2="570" y2="255.8" class="grid"/>
<text x="58" y="260.8" text-anchor="end" class="muted small">16</text>
<line x1="70" y1="233.2" x2="570" y2="233.2" class="grid"/>
<text x="58" y="238.2" text-anchor="end" class="muted small">17</text>
<line x1="70" y1="210.5" x2="570" y2="210.5" class="grid"/>
<text x="58" y="215.5" text-anchor="end" class="muted small">18</text>
<line x1="70" y1="187.9" x2="570" y2="187.9" class="grid"/>
<text x="58" y="192.9" text-anchor="end" class="muted small">19</text>
<line x1="70" y1="165.3" x2="570" y2="165.3" class="grid"/>
<text x="58" y="170.3" text-anchor="end" class="muted small">20</text>
<line x1="70" y1="142.6" x2="570" y2="142.6" class="grid"/>
<text x="58" y="147.6" text-anchor="end" class="muted small">21</text>
<line x1="70" y1="120.0" x2="570" y2="120.0" class="grid"/>
<text x="58" y="125.0" text-anchor="end" class="muted small">22</text>
<polyline class="line-a" points="70.0,527.4 99.4,504.7 128.8,459.5 158.2,482.1 187.6,436.8 217.1,414.2 246.5,368.9 275.9,368.9 305.3,323.7 334.7,301.1 364.1,255.8 393.5,323.7 422.9,278.4 452.4,255.8 481.8,210.5 511.2,210.5 540.6,165.3 570.0,142.6"/>
<circle cx="70.0" cy="527.4" r="9" class="mark-b"/>
<text x="84.0" y="511.4" text-anchor="start" class="fg small">k−n=1</text>
<line x1="70" y1="550" x2="570" y2="550" class="axis"/>
<text x="320.0" y="586" text-anchor="middle" class="muted label">смещение k−n</text>
<text x="564" y="140" text-anchor="end" class="muted small">минимумов: 1</text>
<text x="630" y="102" class="fg subtitle">Столкновение минимумов: n = 21³ = 9261</text>
<line x1="630" y1="550.0" x2="1130" y2="550.0" class="grid"/>
<text x="618" y="555.0" text-anchor="end" class="muted small">6</text>
<line x1="630" y1="529.5" x2="1130" y2="529.5" class="grid"/>
<text x="618" y="534.5" text-anchor="end" class="muted small">7</text>
<line x1="630" y1="509.0" x2="1130" y2="509.0" class="grid"/>
<text x="618" y="514.0" text-anchor="end" class="muted small">8</text>
<line x1="630" y1="488.6" x2="1130" y2="488.6" class="grid"/>
<text x="618" y="493.6" text-anchor="end" class="muted small">9</text>
<line x1="630" y1="468.1" x2="1130" y2="468.1" class="grid"/>
<text x="618" y="473.1" text-anchor="end" class="muted small">10</text>
<line x1="630" y1="447.6" x2="1130" y2="447.6" class="grid"/>
<text x="618" y="452.6" text-anchor="end" class="muted small">11</text>
<line x1="630" y1="427.1" x2="1130" y2="427.1" class="grid"/>
<text x="618" y="432.1" text-anchor="end" class="muted small">12</text>
<line x1="630" y1="406.7" x2="1130" y2="406.7" class="grid"/>
<text x="618" y="411.7" text-anchor="end" class="muted small">13</text>
<line x1="630" y1="386.2" x2="1130" y2="386.2" class="grid"/>
<text x="618" y="391.2" text-anchor="end" class="muted small">14</text>
<line x1="630" y1="365.7" x2="1130" y2="365.7" class="grid"/>
<text x="618" y="370.7" text-anchor="end" class="muted small">15</text>
<line x1="630" y1="345.2" x2="1130" y2="345.2" class="grid"/>
<text x="618" y="350.2" text-anchor="end" class="muted small">16</text>
<line x1="630" y1="324.8" x2="1130" y2="324.8" class="grid"/>
<text x="618" y="329.8" text-anchor="end" class="muted small">17</text>
<line x1="630" y1="304.3" x2="1130" y2="304.3" class="grid"/>
<text x="618" y="309.3" text-anchor="end" class="muted small">18</text>
<line x1="630" y1="283.8" x2="1130" y2="283.8" class="grid"/>
<text x="618" y="288.8" text-anchor="end" class="muted small">19</text>
<line x1="630" y1="263.3" x2="1130" y2="263.3" class="grid"/>
<text x="618" y="268.3" text-anchor="end" class="muted small">20</text>
<line x1="630" y1="242.9" x2="1130" y2="242.9" class="grid"/>
<text x="618" y="247.9" text-anchor="end" class="muted small">21</text>
<line x1="630" y1="222.4" x2="1130" y2="222.4" class="grid"/>
<text x="618" y="227.4" text-anchor="end" class="muted small">22</text>
<line x1="630" y1="201.9" x2="1130" y2="201.9" class="grid"/>
<text x="618" y="206.9" text-anchor="end" class="muted small">23</text>
<line x1="630" y1="181.4" x2="1130" y2="181.4" class="grid"/>
<text x="618" y="186.4" text-anchor="end" class="muted small">24</text>
<line x1="630" y1="161.0" x2="1130" y2="161.0" class="grid"/>
<text x="618" y="166.0" text-anchor="end" class="muted small">25</text>
<line x1="630" y1="140.5" x2="1130" y2="140.5" class="grid"/>
<text x="618" y="145.5" text-anchor="end" class="muted small">26</text>
<line x1="630" y1="120.0" x2="1130" y2="120.0" class="grid"/>
<text x="618" y="125.0" text-anchor="end" class="muted small">27</text>
<polyline class="line-a" points="630.0,529.5 659.4,488.6 688.8,529.5 718.2,488.6 747.6,468.1 777.1,427.1 806.5,427.1 835.9,386.2 865.3,365.7 894.7,324.8 924.1,345.2 953.5,304.3 982.9,283.8 1012.4,242.9 1041.8,242.9 1071.2,201.9 1100.6,181.4 1130.0,140.5"/>
<circle cx="630.0" cy="529.5" r="9" class="mark-b"/>
<text x="644.0" y="513.5" text-anchor="start" class="fg small">k−n=1</text>
<circle cx="688.8" cy="529.5" r="9" class="mark-b"/>
<text x="688.8" y="513.5" text-anchor="middle" class="fg small">k−n=3</text>
<line x1="630" y1="550" x2="1130" y2="550" class="axis"/>
<text x="880.0" y="586" text-anchor="middle" class="muted label">смещение k−n</text>
<text x="1124" y="140" text-anchor="end" class="muted small">минимумов: 2</text>
</svg>
